<svg xmlns="http://www.w3.org/2000/svg" viewBox="0 0 160 160" role="img"><rect width="160" height="160" rx="24" fill="#f1f7ed"/><circle cx="81" cy="87" r="59" fill="#fff8e3"/><g stroke="#344c52" stroke-width="3" stroke-linecap="round" stroke-linejoin="round"><path d="M42 65C30 104 66 130 80 137C94 130 130 104 118 65Q103 49 80 59Q58 49 42 65Z" fill="#e97076"/><path d="M55 49L68 53L80 36L88 53L109 48L99 67L79 60L64 73Z" fill="#7bbf76"/><path d="M57 84L60 90M82 83L81 90M105 81L101 89M67 105L70 111M94 102L90 109" stroke="#fff4bf"/></g></svg>
